<?xml version="1.0" encoding="UTF-8" standalone="no"?>
<svg
   width="18"
   height="18"
   viewBox="0 0 18 18"
   fill="none"
   version="1.1"
   id="svg4"
   sodipodi:docname="btn-edit - Copy.svg"
   inkscape:version="1.1.1 (3bf5ae0d25, 2021-09-20)"
   xmlns:inkscape="http://www.inkscape.org/namespaces/inkscape"
   xmlns:sodipodi="http://sodipodi.sourceforge.net/DTD/sodipodi-0.dtd"
   xmlns="http://www.w3.org/2000/svg"
   xmlns:svg="http://www.w3.org/2000/svg">
  <defs
     id="defs8" />
  <sodipodi:namedview
     id="namedview6"
     pagecolor="#505050"
     bordercolor="#ffffff"
     borderopacity="1"
     inkscape:pageshadow="0"
     inkscape:pageopacity="0"
     inkscape:pagecheckerboard="1"
     showgrid="false"
     inkscape:zoom="2.0574843"
     inkscape:cx="20.413278"
     inkscape:cy="85.298341"
     inkscape:window-width="1066"
     inkscape:window-height="881"
     inkscape:window-x="3033"
     inkscape:window-y="110"
     inkscape:window-maximized="0"
     inkscape:current-layer="svg4" />
  <path
     d="M8.67272 5.99106L2 12.6637V16H5.33636L12.0091 9.32736M8.67272 5.99106L11.0654 3.59837L11.0669 3.59695C11.3962 3.26759 11.5612 3.10261 11.7514 3.04082C11.9189 2.98639 12.0993 2.98639 12.2669 3.04082C12.4569 3.10257 12.6217 3.26735 12.9506 3.59625L14.4018 5.04738C14.7321 5.37769 14.8973 5.54292 14.9592 5.73337C15.0136 5.90088 15.0136 6.08133 14.9592 6.24885C14.8974 6.43916 14.7324 6.60414 14.4025 6.93398L14.4018 6.93468L12.0091 9.32736M8.67272 5.99106L12.0091 9.32736"
     stroke="#CDCDCD"
     stroke-linecap="round"
     stroke-linejoin="round"
     id="path2"
     style="stroke:#6c63ff;stroke-opacity:1" />
</svg>
