<?xml version="1.0" encoding="UTF-8" standalone="no"?>
<svg
   width="18"
   height="18"
   viewBox="0 0 18 18"
   fill="none"
   version="1.1"
   id="svg12"
   sodipodi:docname="btn-delete - Copy.svg"
   inkscape:version="1.1.1 (3bf5ae0d25, 2021-09-20)"
   xmlns:inkscape="http://www.inkscape.org/namespaces/inkscape"
   xmlns:sodipodi="http://sodipodi.sourceforge.net/DTD/sodipodi-0.dtd"
   xmlns="http://www.w3.org/2000/svg"
   xmlns:svg="http://www.w3.org/2000/svg">
  <defs
     id="defs16" />
  <sodipodi:namedview
     id="namedview14"
     pagecolor="#505050"
     bordercolor="#ffffff"
     borderopacity="1"
     inkscape:pageshadow="0"
     inkscape:pageopacity="0"
     inkscape:pagecheckerboard="1"
     showgrid="false"
     inkscape:zoom="2.9097222"
     inkscape:cx="21.307876"
     inkscape:cy="9.451074"
     inkscape:window-width="1708"
     inkscape:window-height="881"
     inkscape:window-x="2391"
     inkscape:window-y="110"
     inkscape:window-maximized="1"
     inkscape:current-layer="svg12" />
  <path
     d="M3.87414 7.61505C3.80712 6.74386 4.49595 6 5.36971 6H12.63C13.5039 6 14.1927 6.74385 14.1257 7.61505L13.6064 14.365C13.5463 15.1465 12.8946 15.75 12.1108 15.75H5.88894C5.10514 15.75 4.45348 15.1465 4.39336 14.365L3.87414 7.61505Z"
     stroke="#CDCDCD"
     id="path2"
     style="stroke:#e50000;stroke-opacity:1" />
  <path
     d="M14.625 3.75H3.375"
     stroke="#CDCDCD"
     stroke-linecap="round"
     id="path4"
     style="stroke:#e50000;stroke-opacity:1" />
  <path
     d="M7.5 2.25C7.5 1.83579 7.83577 1.5 8.25 1.5H9.75C10.1642 1.5 10.5 1.83579 10.5 2.25V3.75H7.5V2.25Z"
     stroke="#CDCDCD"
     id="path6"
     style="stroke:#e50000;stroke-opacity:1" />
  <path
     d="M10.5 9V12.75"
     stroke="#CDCDCD"
     stroke-linecap="round"
     id="path8"
     style="fill:#e50000;fill-opacity:1;stroke:#e50000;stroke-opacity:1" />
  <path
     d="M7.5 9V12.75"
     stroke="#CDCDCD"
     stroke-linecap="round"
     id="path10"
     style="fill:#e50000;fill-opacity:1;stroke:#e50000;stroke-opacity:1" />
</svg>
